<?xml version="1.0" encoding="UTF-8" standalone="no"?>
<svg
   viewBox="0 0 768 768"
   version="1.1"
   id="svg34"
   sodipodi:docname="metatech-inactive.svg"
   width="768"
   height="768"
   inkscape:version="1.2 (dc2aedaf03, 2022-05-15)"
   xml:space="preserve"
   xmlns:inkscape="http://www.inkscape.org/namespaces/inkscape"
   xmlns:sodipodi="http://sodipodi.sourceforge.net/DTD/sodipodi-0.dtd"
   xmlns="http://www.w3.org/2000/svg"
   xmlns:svg="http://www.w3.org/2000/svg"
   xmlns:rdf="http://www.w3.org/1999/02/22-rdf-syntax-ns#"
   xmlns:cc="http://creativecommons.org/ns#"
   xmlns:dc="http://purl.org/dc/elements/1.1/"><sodipodi:namedview
     id="namedview36"
     pagecolor="#ffffff"
     bordercolor="#666666"
     borderopacity="1.0"
     inkscape:pageshadow="2"
     inkscape:pageopacity="0.0"
     inkscape:pagecheckerboard="0"
     showgrid="false"
     fit-margin-top="0"
     fit-margin-left="0"
     fit-margin-right="0"
     fit-margin-bottom="0"
     inkscape:zoom="0.81118881"
     inkscape:cx="70.267241"
     inkscape:cy="379.07328"
     inkscape:window-width="1920"
     inkscape:window-height="991"
     inkscape:window-x="-9"
     inkscape:window-y="-9"
     inkscape:window-maximized="1"
     inkscape:current-layer="svg34"
     width="512px"
     scale-x="1"
     inkscape:showpageshadow="2"
     inkscape:deskcolor="#d1d1d1" /><defs
     id="defs4"><inkscape:path-effect
       effect="fillet_chamfer"
       id="path-effect962"
       is_visible="true"
       lpeversion="1"
       satellites_param="F,1,0,1,0,0.2,0,1 @ F,1,0,1,0,0.2,0,1 @ F,1,0,1,0,0.2,0,1 @ F,1,0,1,0,0.2,0,1"
       unit="px"
       method="auto"
       mode="F"
       radius="20"
       chamfer_steps="1"
       flexible="true"
       use_knot_distance="true"
       apply_no_radius="true"
       apply_with_radius="true"
       only_selected="false"
       hide_knots="false"
       nodesatellites_param="F,1,0,1,0,0.2,0,1 @ F,1,0,1,0,0.2,0,1 @ F,1,0,1,0,0.2,0,1 @ F,1,0,1,0,0.2,0,1" /><style
       id="style2">.cls-1{fill:#0f1932;stroke:#000;stroke-miterlimit:10;}.cls-2{fill:#939393;}.cls-3{fill:#5f5b60;}.cls-4{fill:#191818;}.cls-5{fill:#157cd9;}.cls-6{fill:#143e8e;}.cls-7{fill:#1459af;}.cls-8{fill:#929292;}.cls-9{fill:#5e5a5f;}</style></defs><title
     id="title6">TP Theme</title><path
     style="fill:#ffffff;fill-opacity:1;fill-rule:evenodd;stroke:#5f5b60;stroke-width:4;stroke-miterlimit:4;stroke-dasharray:none;stroke-opacity:1"
     id="rect880"
     width="757.57758"
     height="755.13666"
     x="5.6658821"
     y="6.4084625"
     inkscape:path-effect="#path-effect962"
     d="M 157.1814,6.4084625 H 612.21613 A 151.02733,151.02733 45 0 1 763.24346,157.43579 V 610.02961 A 151.51552,151.51552 135 0 1 611.72794,761.54512 l -455.03473,0 A 151.02733,151.02733 45 0 1 5.6658821,610.51779 V 157.92398 A 151.51552,151.51552 135 0 1 157.1814,6.4084625 Z"
     sodipodi:type="rect" /><metadata
     id="metadata853"><rdf:RDF><cc:Work
         rdf:about=""><dc:title>TP Theme</dc:title></cc:Work></rdf:RDF></metadata><style
     type="text/css"
     id="style2-5">
	.st0{fill:#45C1C3;}
	.st1{fill:#00456F;}
	.st2{fill:#004570;}
</style><g
     id="g337"
     transform="matrix(0.45376531,0,0,0.45376531,136.93431,221.32496)"><path
       class="st0"
       d="m 588.54,215.75525 c -1.36,12.35 -0.87,25.27 -4.47,36.93 -7.28,23.6 -22.67,41.15 -46.66,49.36 -42.42,14.51 -86.52,0.92 -108.07,-42.92 -4.11,-8.35 -3.79,-17.52 -3.98,-26.3 -0.79,-35.22 -23.6,-56.28 -52.64,-68.13 -16.67,-6.8 -31.09,0.6 -45.04,8.81 -23.24,13.67 -31.37,35.22 -34.27,61 -3.32,29.53 -17.31,52.33 -46.17,65.48 -27.45,12.52 -53.52,7.99 -78.45,-3.85 -18.16,-8.62 -39.13,-44.49 -36.83,-72.72 3.58,-43.95 39.41,-78.93 83.01,-78.22 31.32,0.51 58.96,-28.89 61.99,-60.309996 1.74,-18.05 4.42,-35.77 16.11,-50.29 29.4,-36.5100001 75.68,-47.82 117.12,-15.58 19.08,14.84 27.06,34.67 28.7,57.14 2.09,28.699996 17.61,48.629996 39.53,63.929996 9.04,6.31 21.63,5.51 32.97,4.35 3.84,-0.39 7.56,-1.99 11.52,-1.06 28.01,8.42 47.05,27.12 61.01,52.17 3.69,6.6 0.77,14.04 4.62,20.21 z"
       id="path4" /><path
       class="st1"
       d="m 588.54,215.75525 c -6.91,-7.23 -4.91,-17.97 -10.77,-25.94 -14.1,-19.17 -29.19,-36.8 -53.91,-41.93 -5.83,-1.21 -2.47,-2.65 -0.92,-4.51 19.26,-3.49 28.12,-19.27 38.7,-32.92 6.91,-8.92 9.22,-19.269996 9.51,-30.509996 0.47,-18.33 7.12,-35.47 17.41,-49.76 19.9,-27.6300001 61.39,-37.8300001 92.75,-24.1400001 31.6,13.7900001 50.42,37.6700001 52.36,72.9000001 1.47,26.719996 14.01,46.059996 36.55,59.879996 9.24,5.66 19.22,5.88 29.26,6.18 49.04,1.47 89.36,49.99 78.06,97.77 -6.18,26.13 -19.47,47.99 -47.45,58.43 -29.93,11.17 -58.14,7.86 -82.49,-10.41 -18.05,-13.55 -30.13,-34.06 -30.17,-58.02 -0.03,-18.82 -8.36,-34.15 -18.12,-48.23 -17.54,-25.29 -55.03,-27.14 -81.18,-8.42 -14.7,10.53 -25.18,22.32 -29.59,39.63 z"
       id="path6" /><path
       class="st2"
       d="m 359.39,454.46525 c -43.4,4.21 -82.55,-41.73 -81.93,-80.89 0.64,-39.85 32.11,-81 80.67,-80.52 50.66,0.49 80.22,34.5 81.28,80.95 0.96,42.08 -35.51,82.7 -80.02,80.46 z"
       id="path8" /><path
       class="st0"
       d="m 652.22,454.51525 c -48.01,1.04 -81.28,-37.81 -80.57,-80.68 0.76,-45.64 28.1,-79.78 80.82,-80.7 49.61,-0.87 80.06,39.43 81.46,79.94 1.34,38.78 -37.76,85.18 -81.71,81.44 z"
       id="path10" /><g
       id="g30"
       transform="translate(-415.91,-168.99475)">
	<g
   id="g28">
		<path
   class="st1"
   d="m 564.19,829.16 c -1.03,-20.04 -2.16,-44.13 -2.04,-65.26 h -0.7 c -5.64,19.02 -12.77,39.95 -20.13,59.58 l -25.06,67.13 h -23.98 l -22.63,-66.22 c -6.69,-19.91 -12.79,-40.99 -17.26,-60.5 h -0.56 c -0.73,20.3 -1.75,45.1 -3.06,66.2 l -3.8,62.35 H 415.91 L 427.26,737.3 h 40.96 l 22.23,62.31 c 6.13,18.33 11.6,36.74 15.69,54.03 h 0.75 c 4.58,-16.95 10.44,-35.9 17.06,-54.15 l 23.67,-62.19 h 40.44 l 9.8,155.14 h -30.38 z"
   id="path12" />
		<path
   class="st1"
   d="m 650.33,844.27 c 0.83,20.31 18.12,29.18 38.07,29.18 14.34,0 24.6,-2.04 34.02,-5.19 l 4.61,19.5 c -10.56,4.07 -25.19,7.11 -43.08,7.11 -40.02,0 -63.46,-22.48 -63.46,-56.82 0,-30.93 20.64,-60.19 60.28,-60.19 40.07,0 53.11,29.95 53.11,54.5 0,5.27 -0.5,9.48 -1.1,11.9 h -82.45 z m 54.21,-19.75 c 0.14,-10.38 -4.83,-27.31 -25.71,-27.31 -19.18,0 -27.17,15.84 -28.55,27.31 z"
   id="path14" />
		<path
   class="st1"
   d="m 794.71,748.31 v 32.09 h 29.65 v 21.11 h -29.65 v 49.45 c 0,13.71 4.02,20.68 15.94,20.68 5.33,0 9.33,-0.55 12.11,-1.24 l 0.63,21.56 c -4.68,1.59 -12.85,2.91 -22.68,2.91 -11.46,0 -21,-3.55 -26.79,-9.23 -6.7,-6.43 -9.75,-16.75 -9.75,-31.43 v -52.7 H 746.58 V 780.4 h 17.59 v -25.38 z"
   id="path16" />
		<path
   class="st1"
   d="m 917.26,892.46 -2.13,-12.48 h -0.75 c -7.47,8.84 -20.37,15.02 -36.33,15.02 -25.01,0 -38.86,-16.24 -38.86,-33.33 0,-28.28 27.71,-42.59 73.12,-42.43 v -1.85 c 0,-7.36 -3.21,-19.61 -25.03,-19.54 -12.08,0 -24.74,3.54 -33.14,8.36 l -6.18,-18.39 c 9.31,-5.14 25.27,-9.95 44.68,-9.95 39.54,0 50.82,22.66 50.82,47.25 v 40.35 c 0,10.19 0.56,20.07 1.92,26.99 z m -4.13,-54.89 c -21.99,-0.26 -43.03,3.95 -43.03,21.01 0,10.97 7.92,16.14 17.77,16.14 12.44,0 21.4,-7.3 24.39,-15.51 0.67,-1.97 0.87,-4.19 0.87,-6.16 z"
   id="path18" />
		<path
   class="st1"
   d="m 1062.79,761.13 h -48.73 v -23.81 h 129.11 v 23.81 h -49.19 v 131.33 h -31.19 z"
   id="path20" />
		<path
   class="st1"
   d="m 1183.82,844.27 c 0.83,20.31 18.12,29.18 38.07,29.18 14.34,0 24.6,-2.04 34.02,-5.19 l 4.62,19.5 c -10.56,4.07 -25.19,7.11 -43.08,7.11 -40.02,0 -63.46,-22.48 -63.46,-56.82 0,-30.93 20.64,-60.19 60.29,-60.19 40.07,0 53.11,29.95 53.11,54.5 0,5.27 -0.5,9.48 -1.1,11.9 h -82.47 z m 54.21,-19.75 c 0.14,-10.38 -4.83,-27.31 -25.71,-27.31 -19.18,0 -27.17,15.84 -28.55,27.31 z"
   id="path22" />
		<path
   class="st1"
   d="m 1382.98,889.09 c -6.45,2.78 -19.32,5.79 -34.79,5.79 -38.64,0 -63.55,-22.54 -63.55,-57.31 0,-33.56 25.22,-59.63 68.58,-59.63 11.52,0 22.98,2.28 30.1,5.11 l -5.53,21.31 c -5.01,-2.22 -12.48,-4.38 -23.58,-4.38 -23.77,0 -37.86,15.79 -37.75,36.34 0,22.99 16.61,36.16 37.85,36.16 10.68,0 18.39,-2.1 24.48,-4.42 z"
   id="path24" />
		<path
   class="st1"
   d="m 1406.22,729.03 h 31.19 v 66.65 h 0.51 c 3.88,-5.27 9.08,-9.63 15.5,-12.83 6.06,-3.13 13.56,-4.99 21.29,-4.99 20.96,0 43.09,12.64 43.09,48.61 v 65.98 h -31.19 v -62.87 c 0,-16.24 -6.45,-28.61 -23.69,-28.61 -12.21,0 -20.73,7.45 -24.15,15.9 -1.05,2.43 -1.36,5.47 -1.36,8.55 v 67.03 h -31.19 z"
   id="path26" />
	</g>
</g></g></svg>
